<svg width="90" height="66" viewBox="0 0 90 66" fill="none" xmlns="http://www.w3.org/2000/svg">
<g clip-path="url(#clip0)">
<path d="M56.2 23.9998C61.1 19.9998 62.9 13.8998 60.9 7.59984C59.1 1.59984 54 0.899837 48.9 0.599837C45.8 0.399837 42.6 0.399837 39.4 0.699837C34.6 1.19984 30 2.59984 29 8.29984C27.9 14.1998 27.7 19.9998 34 23.9998C28.1 27.6998 26.1 32.9998 27.7 40.4998C28.9 46.0998 32.2 48.3998 39.4 49.1998C43.9 49.6998 47.8 49.7998 52.2 48.8998C59.1 47.5998 61.3 45.6998 62.3 39.7998C63.8 32.1998 61.8 27.2998 56.2 23.9998ZM45.4 7.99984C50.7 8.09984 52.1 9.39984 52.1 14.2998C52.1 18.9998 50.5 20.2998 45.1 20.2998C39.8 20.2998 38.2 18.7998 38.1 14.1998C38 9.29984 39.7 7.89984 45.4 7.99984ZM52.8 34.8998C52.6 39.7998 50.6 41.3998 44.8 41.2998C39.1 41.1998 37.2 39.4998 37.1 34.4998C37.1 29.3998 39.2 27.4998 45.1 27.4998C50.9 27.5998 53 29.4998 52.8 34.8998Z" fill="#00274B"/>
<path fill-rule="evenodd" clip-rule="evenodd" d="M14.1 49.1H31.6C29 47.8 27.4 45.9 26.4 43.1H14C9.5 43.1 5.9 39.6 5.9 35.2C5.9 31 9.2 27.6 13.3 27.3H18.8V21.3C19.3 17.7 22.3 15 26 15H26.3C26.1 12.9 26.3 10.9 26.6 9H26C19 9 13.3 14.4 12.8 21.3C5.6 22 0 27.9 0 35.2C0 42.8 6.1 49 13.8 49.1H14.1ZM12.8 21.3H12.9L12.8 21.7V21.3ZM76 49.1H58.5C61 47.8 62.6 45.9 63.6 43.1H76.1C80.6 43.1 84.2 39.6 84.2 35.2C84.2 31 80.9 27.6 76.8 27.3H71.3V21.3C70.8 17.7 67.8 15 64.1 15H63.8C64 12.9 63.8 10.9 63.5 9H64.1C71.1 9 76.8 14.4 77.2 21.3H77.1L77.2 21.7V21.3C84.4 22 90 27.9 90 35.2C90 42.8 83.9 48.9 76.3 49.1H76Z" fill="#1AAAE5"/>
<path d="M22.432 65.5829V54.9109H20.56V59.2789H15.008V54.9109H13.136V65.5829H15.008V60.9269H20.56V65.5829H22.432Z" fill="#00274B"/>
<path d="M37.6745 65.7749C40.8745 65.7749 43.1305 63.4389 43.1305 60.2549C43.1305 57.0709 40.8745 54.7349 37.6745 54.7349C34.4745 54.7349 32.2185 57.0709 32.2185 60.2549C32.2185 63.4389 34.4745 65.7749 37.6745 65.7749ZM37.6745 64.1109C35.5145 64.1109 34.1385 62.4469 34.1385 60.2549C34.1385 58.0469 35.5145 56.3989 37.6745 56.3989C39.8185 56.3989 41.2105 58.0469 41.2105 60.2549C41.2105 62.4469 39.8185 64.1109 37.6745 64.1109Z" fill="#00274B"/>
<path d="M56.5809 65.7749C59.4609 65.7749 60.7089 64.2549 60.7089 62.4789C60.7089 58.4949 54.5009 59.7269 54.5009 57.7429C54.5009 56.9429 55.2049 56.4149 56.3089 56.4149C57.4289 56.4149 58.5649 56.7989 59.3969 57.6309L60.4689 56.2389C59.4769 55.2789 58.1329 54.7509 56.4689 54.7509C54.1329 54.7509 52.5809 56.1109 52.5809 57.8709C52.5809 61.8069 58.8049 60.4149 58.8049 62.6549C58.8049 63.3589 58.1969 64.1109 56.6609 64.1109C55.1729 64.1109 54.0209 63.4229 53.2849 62.6389L52.2449 64.0789C53.1889 65.0869 54.6129 65.7749 56.5809 65.7749Z" fill="#00274B"/>
<path d="M74.6926 65.5829V56.5589H77.9246V54.9109H69.5886V56.5589H72.8206V65.5829H74.6926Z" fill="#00274B"/>
</g>
<defs>
<clipPath id="clip0">
<rect y="0.460449" width="90" height="65.3144" fill="white"/>
</clipPath>
</defs>
</svg>
